<svg width="980" height="640" viewBox="0 0 980 640" xmlns="http://www.w3.org/2000/svg" role="img" aria-label="Security shield hero graphic">
  <defs>
    <linearGradient id="heroBg" x1="58" y1="42" x2="918" y2="598" gradientUnits="userSpaceOnUse">
      <stop stop-color="#0A1A29"/>
      <stop offset="1" stop-color="#14384B"/>
    </linearGradient>
    <radialGradient id="heroGlow" cx="0" cy="0" r="1" gradientUnits="userSpaceOnUse" gradientTransform="translate(676 132) rotate(121) scale(268 310)">
      <stop stop-color="#49C8F0" stop-opacity="0.25"/>
      <stop offset="1" stop-color="#49C8F0" stop-opacity="0"/>
    </radialGradient>
    <linearGradient id="heroAccent" x1="626" y1="112" x2="846" y2="416" gradientUnits="userSpaceOnUse">
      <stop stop-color="#49C8F0"/>
      <stop offset="1" stop-color="#78E7BD"/>
    </linearGradient>
  </defs>
  <rect x="20" y="20" width="940" height="600" rx="30" fill="url(#heroBg)" stroke="#30566C"/>
  <rect x="20" y="20" width="940" height="600" rx="30" fill="url(#heroGlow)"/>
  <g opacity="0.18" stroke="#33586E">
    <path d="M92 134H894"/><path d="M92 226H894"/><path d="M92 318H894"/><path d="M92 410H894"/><path d="M92 502H894"/>
  </g>
  <text x="490" y="100" text-anchor="middle" fill="#E4F5FF" font-family="Sora, sans-serif" font-size="32" font-weight="700">Security by Design</text>
  <text x="490" y="136" text-anchor="middle" fill="#A8CFDF" font-family="Sora, sans-serif" font-size="15">Visible controls, layered resilience, and evidence-backed operations</text>
  <rect x="84" y="176" width="404" height="236" rx="20" fill="#0E2B3D" stroke="#436A82"/>
  <text x="114" y="218" fill="#E3F5FF" font-family="Sora, sans-serif" font-size="22" font-weight="700">Endpoint Security Posture</text>
  <text x="114" y="246" fill="#9FC5D8" font-family="JetBrains Mono, monospace" font-size="12">hardening / EDR / patching / response readiness</text>
  <g>
    <text x="114" y="292" fill="#C5DDEA" font-family="Sora, sans-serif" font-size="13">Hardening Coverage</text>
    <rect x="114" y="302" width="286" height="14" rx="7" fill="#1B4155"/>
    <rect x="114" y="302" width="242" height="14" rx="7" fill="#49C8F0"/>
    <text x="410" y="314" fill="#B7D4E5" font-family="JetBrains Mono, monospace" font-size="11">84%</text>
    <text x="114" y="346" fill="#C5DDEA" font-family="Sora, sans-serif" font-size="13">EDR Sensor Health</text>
    <rect x="114" y="356" width="286" height="14" rx="7" fill="#1B4155"/>
    <rect x="114" y="356" width="264" height="14" rx="7" fill="#78E7BD"/>
    <text x="410" y="368" fill="#B7D4E5" font-family="JetBrains Mono, monospace" font-size="11">92%</text>
  </g>
  <path d="M626 118L742 82L858 118V266C858 360 794 427 742 456C690 427 626 360 626 266V118Z" fill="#0D2A3C" stroke="url(#heroAccent)" stroke-width="5"/>
  <path d="M686 272L726 312L808 216" fill="none" stroke="#78E7BD" stroke-width="14" stroke-linecap="round" stroke-linejoin="round"/>
  <rect x="540" y="488" width="360" height="88" rx="18" fill="#102B3C" stroke="#456B82"/>
  <text x="572" y="528" fill="#E3F5FF" font-family="Sora, sans-serif" font-size="20" font-weight="700">Detection Operations</text>
  <text x="572" y="556" fill="#A8CFDF" font-family="JetBrains Mono, monospace" font-size="13">18.4k events/min | 42 high-confidence detections | median triage 08m</text>
</svg>
