<svg width="980" height="620" viewBox="0 0 980 620" xmlns="http://www.w3.org/2000/svg" role="img" aria-label="Lab operations dashboard">
  <defs>
    <linearGradient id="opsBg" x1="54" y1="42" x2="920" y2="578" gradientUnits="userSpaceOnUse">
      <stop stop-color="#091A28"/>
      <stop offset="1" stop-color="#14384B"/>
    </linearGradient>
    <linearGradient id="opsAccent" x1="94" y1="0" x2="910" y2="0" gradientUnits="userSpaceOnUse">
      <stop stop-color="#49C8F0"/>
      <stop offset="1" stop-color="#78E7BD"/>
    </linearGradient>
  </defs>
  <rect x="20" y="20" width="940" height="580" rx="28" fill="url(#opsBg)" stroke="#30566D"/>
  <text x="490" y="96" text-anchor="middle" fill="#E3F5FF" font-family="Sora, sans-serif" font-size="31" font-weight="700">Operations Lab Coverage</text>
  <text x="490" y="130" text-anchor="middle" fill="#A8CFDF" font-family="JetBrains Mono, monospace" font-size="13">track coverage · validation quality · measurable execution progress</text>
  <rect x="70" y="168" width="840" height="384" rx="22" fill="#0B2232" stroke="#2D566E"/>
  <rect x="92" y="204" width="250" height="314" rx="18" fill="#0F2B3D" stroke="#436980"/>
  <rect x="364" y="204" width="252" height="314" rx="18" fill="#0F2B3D" stroke="#436980"/>
  <rect x="638" y="204" width="250" height="314" rx="18" fill="#0F2B3D" stroke="#436980"/>
  <g fill="#E3F5FF" font-family="Sora, sans-serif" font-size="17" font-weight="700">
    <text x="116" y="240">Execution Phases</text>
    <text x="390" y="240">Validation Quality</text>
    <text x="664" y="240">Coverage Snapshot</text>
  </g>
  <g>
    <rect x="116" y="278" width="204" height="14" rx="7" fill="#1B4155"/><rect x="116" y="278" width="182" height="14" rx="7" fill="#49C8F0"/>
    <rect x="116" y="316" width="204" height="14" rx="7" fill="#1B4155"/><rect x="116" y="316" width="194" height="14" rx="7" fill="#78E7BD"/>
    <rect x="116" y="354" width="204" height="14" rx="7" fill="#1B4155"/><rect x="116" y="354" width="168" height="14" rx="7" fill="#49C8F0"/>
    <rect x="116" y="392" width="204" height="14" rx="7" fill="#1B4155"/><rect x="116" y="392" width="188" height="14" rx="7" fill="#78E7BD"/>
  </g>
  <circle cx="490" cy="352" r="92" fill="none" stroke="#294F63" stroke-width="16"/>
  <circle cx="490" cy="352" r="92" fill="none" stroke="url(#opsAccent)" stroke-width="16" stroke-dasharray="420 158" transform="rotate(-90 490 352)"/>
  <text x="490" y="360" text-anchor="middle" fill="#E4F5FF" font-family="Sora, sans-serif" font-size="34" font-weight="700">78%</text>
  <text x="490" y="388" text-anchor="middle" fill="#A8CFDF" font-family="JetBrains Mono, monospace" font-size="12">validated objectives</text>
  <g fill="#B3CFDF" font-family="JetBrains Mono, monospace" font-size="12">
    <text x="664" y="286">Endpoint ............ 5 / 5</text>
    <text x="664" y="314">Network ............. 5 / 5</text>
    <text x="664" y="342">Pentesting .......... 5 / 5</text>
    <text x="664" y="370">Architecture ........ 5 / 5</text>
    <text x="664" y="398">Automation .......... 5 / 5</text>
    <text x="664" y="426">Detection ........... 5 / 5</text>
    <text x="664" y="454">Security Ops ........ 5 / 5</text>
  </g>
</svg>
